<svg width="21" height="40" viewBox="0 0 21 40" fill="none" xmlns="http://www.w3.org/2000/svg">
<path id="Vector" d="M5.68476 7.50673C5.85213 6.60053 6.37816 5.95994 7.36647 5.52246C8.46635 5.03811 10.1401 4.82719 12.2442 5.17092C12.9456 5.28029 15.1214 5.72558 15.7591 5.89744C17.114 6.27242 18.5247 5.49903 18.9073 4.16316C19.2898 2.82729 18.5008 1.45236 17.1379 1.07738C16.2532 0.83521 13.8701 0.358673 13.0811 0.233679C10.3154 -0.21161 7.54978 -0.0475558 5.27031 0.960203C2.8952 2.01483 1.10988 3.97567 0.647608 6.74896C0.639638 6.78802 0.631667 6.83489 0.631667 6.87395C0.456323 8.41293 0.655578 9.83473 1.27725 11.1003C1.89095 12.358 2.82347 13.2877 3.82771 13.983C3.87553 14.022 3.93132 14.0533 3.98711 14.0923C2.28946 15.1782 1.03018 16.8109 0.647608 18.9905C0.639638 19.0374 0.631667 19.0764 0.631667 19.1233C0.448353 20.631 0.663548 22.0216 1.30116 23.2637C1.93081 24.4824 2.87926 25.373 3.87553 26.037C5.66085 27.2244 8.01205 27.9119 9.88504 28.4587L10.1799 28.5447C12.3478 29.1853 13.9179 29.6852 14.9142 30.404C15.3526 30.7164 15.5678 30.9977 15.6714 31.2555C15.775 31.5055 15.8786 31.9273 15.7431 32.6695C15.6076 33.4585 15.1294 34.0756 14.0933 34.5053C12.9775 34.974 11.2719 35.1693 9.15178 34.849C8.1316 34.685 6.35425 34.0913 4.83992 33.5835C4.4972 33.4663 4.16245 33.3569 3.85959 33.2554C2.5206 32.8179 1.078 33.5288 0.631667 34.8412C0.185337 36.1537 0.910623 37.5676 2.24961 38.0051C2.45684 38.0676 2.70391 38.1535 2.98287 38.2473C4.46532 38.7395 6.8484 39.5441 8.3468 39.7785H8.36274C11.1124 40.2003 13.8462 40.0441 16.1097 39.0988C18.453 38.1145 20.2941 36.2474 20.7723 33.5132C21.0353 32.0054 20.9237 30.5914 20.3738 29.3025C19.8717 28.1306 19.0667 27.2401 18.174 26.5526C19.4891 25.4667 20.4455 23.959 20.7723 22.006C21.0273 20.4592 20.9237 19.0139 20.3897 17.7015C19.8557 16.3891 18.971 15.4048 17.9827 14.6548C16.1655 13.2799 13.7107 12.5143 11.7899 11.9206L11.6783 11.8815C9.4945 11.2018 7.86859 10.6863 6.77667 9.92848C6.29049 9.58475 6.01951 9.26445 5.86807 8.95978C5.72461 8.67073 5.61303 8.23326 5.68476 7.51454V7.50673ZM11.7979 23.7949C11.7819 23.7871 11.766 23.7871 11.7501 23.7793L11.6385 23.7481C9.45465 23.1075 7.82077 22.6153 6.72088 21.8888C6.22673 21.5607 5.97966 21.2716 5.84416 21.006C5.72461 20.7717 5.61303 20.4045 5.67679 19.7795C5.82822 19.0217 6.30643 18.428 7.31067 18.0062C8.4265 17.5375 10.1321 17.3421 12.2602 17.6703L13.5673 17.8734C14.0694 18.0999 14.4998 18.3421 14.8584 18.6155C15.2968 18.9436 15.5279 19.2561 15.6554 19.5686C15.783 19.8811 15.8786 20.3811 15.7431 21.2013C15.5518 22.3497 14.7229 23.2637 12.7862 23.6231L11.7979 23.8027V23.7949Z" fill="#75AFC2"/>
</svg>
