<svg width="41" height="40" viewBox="0 0 41 40" fill="none" xmlns="http://www.w3.org/2000/svg">
<path id="Vector" d="M24.8941 0.73235C23.9176 -0.244117 22.3318 -0.244117 21.3553 0.73235L11.9812 10.1064C11.0048 11.0829 11.0048 12.6687 11.9812 13.6452L13.2311 14.895C14.2076 15.8715 15.7934 15.8715 16.7698 14.895L17.0823 14.5826L25.4252 22.9177L25.1128 23.2302C24.1363 24.2066 24.1363 25.7924 25.1128 26.7689L26.3627 28.0187C27.3391 28.9952 28.9249 28.9952 29.9014 28.0187L39.2755 18.6447C40.2519 17.6682 40.2519 16.0824 39.2755 15.1059L38.0256 13.8561C37.0491 12.8796 35.4633 12.8796 34.4869 13.8561L34.1744 14.1685L25.8315 5.8256L26.1439 5.51313C27.1204 4.53667 27.1204 2.95088 26.1439 1.97442L24.8941 0.724539V0.73235ZM13.0202 23.2302C12.0437 22.2537 10.458 22.2537 9.48149 23.2302L0.73235 31.9793C-0.244117 32.9558 -0.244117 34.5415 0.73235 35.518L4.48198 39.2677C5.45845 40.2441 7.04423 40.2441 8.0207 39.2677L16.7698 30.5185C17.7463 29.542 17.7463 27.9563 16.7698 26.9798L16.6605 26.8704L21.2538 22.2849L17.7151 18.7462L13.1296 23.3317L13.0202 23.2223V23.2302Z" fill="#75AFC2"/>
</svg>
