<svg width="57" height="40" viewBox="0 0 57 40" fill="none" xmlns="http://www.w3.org/2000/svg">
<path id="Vector" d="M16.5471 5C16.5471 7.75893 14.324 10 11.5871 10C8.85028 10 6.62714 7.75893 6.62714 5C6.62714 2.24107 8.85028 0 11.5871 0C14.324 0 16.5471 2.24107 16.5471 5ZM5.91857 19.0804C5.03286 20.0804 4.50143 21.4107 4.50143 22.8571C4.50143 24.3036 5.03286 25.6339 5.91857 26.6339V19.0804ZM18.7083 14.6786C16.0777 17.0268 14.4214 20.4643 14.4214 24.2857C14.4214 27.3482 15.4843 30.1607 17.2557 32.3661V34.2857C17.2557 35.8661 15.9891 37.1429 14.4214 37.1429H8.75286C7.18514 37.1429 5.91857 35.8661 5.91857 34.2857V31.8929C2.57057 30.2857 0.25 26.8482 0.25 22.8571C0.25 17.3304 4.68743 12.8571 10.17 12.8571H13.0043C15.13 12.8571 17.0963 13.5268 18.7083 14.6696V14.6786ZM39.93 34.2857V32.3661C41.7014 30.1607 42.7643 27.3482 42.7643 24.2857C42.7643 20.4643 41.108 17.0268 38.4774 14.6696C40.0894 13.5268 42.0557 12.8571 44.1814 12.8571H47.0157C52.4983 12.8571 56.9357 17.3304 56.9357 22.8571C56.9357 26.8482 54.6151 30.2857 51.2671 31.8929V34.2857C51.2671 35.8661 50.0006 37.1429 48.4328 37.1429H42.7643C41.1966 37.1429 39.93 35.8661 39.93 34.2857ZM50.5586 5C50.5586 7.75893 48.3354 10 45.5986 10C42.8617 10 40.6386 7.75893 40.6386 5C40.6386 2.24107 42.8617 0 45.5986 0C48.3354 0 50.5586 2.24107 50.5586 5ZM51.2671 19.0804V26.6429C52.1529 25.6339 52.6843 24.3125 52.6843 22.8661C52.6843 21.4196 52.1529 20.0893 51.2671 19.0893V19.0804ZM28.5929 11.4286C25.4663 11.4286 22.9243 8.86607 22.9243 5.71429C22.9243 2.5625 25.4663 0 28.5929 0C31.7194 0 34.2614 2.5625 34.2614 5.71429C34.2614 8.86607 31.7194 11.4286 28.5929 11.4286ZM21.5071 24.2857C21.5071 25.7321 22.0386 27.0536 22.9243 28.0625V20.5089C22.0386 21.5179 21.5071 22.8393 21.5071 24.2857ZM34.2614 20.5089V28.0714C35.1471 27.0625 35.6786 25.7411 35.6786 24.2946C35.6786 22.8482 35.1471 21.5179 34.2614 20.5179V20.5089ZM39.93 24.2857C39.93 28.2768 37.6094 31.7143 34.2614 33.3214V37.1429C34.2614 38.7232 32.9949 40 31.4271 40H25.7586C24.1909 40 22.9243 38.7232 22.9243 37.1429V33.3214C19.5763 31.7143 17.2557 28.2768 17.2557 24.2857C17.2557 18.7589 21.6931 14.2857 27.1757 14.2857H30.01C35.4926 14.2857 39.93 18.7589 39.93 24.2857Z" fill="#75AFC2"/>
</svg>
