<svg width="30" height="40" viewBox="0 0 30 40" fill="none" xmlns="http://www.w3.org/2000/svg">
<path id="Vector" d="M4.96454 0C2.22629 0 0 2.24219 0 5V35C0 37.7578 2.22629 40 4.96454 40H24.8227C27.561 40 29.7872 37.7578 29.7872 35V12.5H19.8582C18.4852 12.5 17.3759 11.3828 17.3759 10V0H4.96454ZM19.8582 0V10H29.7872L19.8582 0ZM6.20567 5H11.1702C11.8528 5 12.4113 5.5625 12.4113 6.25C12.4113 6.9375 11.8528 7.5 11.1702 7.5H6.20567C5.52305 7.5 4.96454 6.9375 4.96454 6.25C4.96454 5.5625 5.52305 5 6.20567 5ZM6.20567 10H11.1702C11.8528 10 12.4113 10.5625 12.4113 11.25C12.4113 11.9375 11.8528 12.5 11.1702 12.5H6.20567C5.52305 12.5 4.96454 11.9375 4.96454 11.25C4.96454 10.5625 5.52305 10 6.20567 10ZM10.41 29.8281C9.93684 31.4141 8.48626 32.5 6.84176 32.5H6.20567C5.52305 32.5 4.96454 31.9375 4.96454 31.25C4.96454 30.5625 5.52305 30 6.20567 30H6.84176C7.39251 30 7.87345 29.6406 8.02859 29.1094L9.1844 25.2422C9.44814 24.3594 10.2549 23.75 11.1702 23.75C12.0856 23.75 12.8923 24.3516 13.156 25.2422L14.0559 28.2578C14.6299 27.7734 15.359 27.5 16.1348 27.5C17.3681 27.5 18.4929 28.2031 19.0437 29.3125L19.385 30H23.5816C24.2642 30 24.8227 30.5625 24.8227 31.25C24.8227 31.9375 24.2642 32.5 23.5816 32.5H18.617C18.1438 32.5 17.7172 32.2344 17.5078 31.8125L16.8251 30.4297C16.6933 30.1641 16.4295 30 16.1425 30C15.8555 30 15.584 30.1641 15.4599 30.4297L14.7773 31.8125C14.5523 32.2734 14.0636 32.5469 13.5594 32.5C13.0552 32.4531 12.6208 32.1016 12.4812 31.6172L11.1702 27.2656L10.41 29.8281Z" fill="#75AFC2"/>
</svg>
