<svg width="35" height="40" viewBox="0 0 35 40" fill="none" xmlns="http://www.w3.org/2000/svg">
<path id="Vector" d="M11.3424 11.25V15H23.6674V11.25C23.6674 7.79688 20.9097 5 17.5049 5C14.1001 5 11.3424 7.79688 11.3424 11.25ZM6.41246 15V11.25C6.41246 5.03906 11.381 0 17.5049 0C23.6289 0 28.5973 5.03906 28.5973 11.25V15H29.8298C32.549 15 34.7598 17.2422 34.7598 20V35C34.7598 37.7578 32.549 40 29.8298 40H5.17997C2.46078 40 0.25 37.7578 0.25 35V20C0.25 17.2422 2.46078 15 5.17997 15H6.41246Z" fill="#75AFC2"/>
</svg>
