<svg width="58" height="40" viewBox="0 0 58 40" fill="none" xmlns="http://www.w3.org/2000/svg">
<path id="Vector" d="M8.6113 5.71429V25.7143C8.6113 28.8661 11.1857 31.4286 14.3522 31.4286H51.6678C54.8342 31.4286 57.4086 28.8661 57.4086 25.7143V5.71429C57.4086 2.5625 54.8342 0 51.6678 0H14.3522C11.1857 0 8.6113 2.5625 8.6113 5.71429ZM14.3522 20C17.5186 20 20.093 22.5625 20.093 25.7143H14.3522V20ZM20.093 5.71429C20.093 8.86607 17.5186 11.4286 14.3522 11.4286V5.71429H20.093ZM51.6678 20V25.7143H45.9269C45.9269 22.5625 48.5013 20 51.6678 20ZM45.9269 5.71429H51.6678V11.4286C48.5013 11.4286 45.9269 8.86607 45.9269 5.71429ZM40.186 15.7143C40.186 19.6607 36.9748 22.8571 33.01 22.8571C29.0452 22.8571 25.8339 19.6607 25.8339 15.7143C25.8339 11.7679 29.0452 8.57143 33.01 8.57143C36.9748 8.57143 40.186 11.7679 40.186 15.7143ZM4.30565 7.85714C4.30565 6.66964 3.34585 5.71429 2.15282 5.71429C0.959801 5.71429 0 6.66964 0 7.85714V29.2857C0 35.2054 4.81694 40 10.7641 40H46.6445C47.8375 40 48.7973 39.0446 48.7973 37.8571C48.7973 36.6696 47.8375 35.7143 46.6445 35.7143H10.7641C7.19402 35.7143 4.30565 32.8393 4.30565 29.2857V7.85714Z" fill="#75AFC2"/>
</svg>
