<svg width="36" height="40" viewBox="0 0 36 40" fill="none" xmlns="http://www.w3.org/2000/svg">
<path id="Vector" d="M17.7045 1.25C17.1825 1.25 16.863 1.03125 16.4968 0.773438C15.9825 0.421875 15.3669 0 13.9643 0C11.5877 0 9.91234 3.41406 8.82143 6.98438C5.13571 7.66406 2.74351 8.76562 2.74351 10C2.74351 11.1172 4.69156 12.1172 7.77727 12.8047C7.7461 13.1172 7.73052 13.4297 7.73052 13.75C7.73052 15.0781 7.98766 16.3438 8.4552 17.5H3.78766C3.21104 17.5 2.74351 17.9688 2.74351 18.5469C2.74351 18.6797 2.76688 18.8125 2.82143 18.9375L5.84481 26.5078C2.4474 29.0469 0.25 33.1094 0.25 37.6797C0.25 38.9609 1.28636 40 2.56429 40H32.8448C34.1227 40 35.1591 38.9609 35.1591 37.6797C35.1591 33.1094 32.9617 29.0547 29.5721 26.5078L32.5877 18.9375C32.6344 18.8125 32.6656 18.6797 32.6656 18.5469C32.6656 17.9688 32.1981 17.5 31.6214 17.5H26.9539C27.4214 16.3438 27.6786 15.0781 27.6786 13.75C27.6786 13.4297 27.663 13.1172 27.6318 12.8047C30.7175 12.1172 32.6656 11.1172 32.6656 10C32.6656 8.76562 30.2734 7.66406 26.5877 6.98438C25.4968 3.41406 23.8214 0 21.4448 0C20.0422 0 19.4266 0.421875 18.9123 0.773438C18.5461 1.03125 18.2266 1.25 17.7045 1.25ZM22.0682 17.5H21.1019C19.8162 17.5 18.6786 16.6719 18.2734 15.4531C18.0942 14.9062 17.3227 14.9062 17.1435 15.4531C16.7383 16.6719 15.5929 17.5 14.3149 17.5H13.3409C11.6188 17.5 10.224 16.1016 10.224 14.375V13.25C12.4214 13.5703 14.9773 13.75 17.7045 13.75C20.4318 13.75 22.9877 13.5703 25.1851 13.25V14.375C25.1851 16.1016 23.7903 17.5 22.0682 17.5ZM15.211 25L16.4578 27.5L13.9643 37.5L10.224 22.5L15.211 25ZM25.1851 22.5L21.4448 37.5L18.9513 27.5L20.1981 25L25.1851 22.5Z" fill="#75AFC2"/>
</svg>
