<svg width="18" height="18" viewBox="0 0 18 18" fill="none" xmlns="http://www.w3.org/2000/svg">
<path id="Vector" d="M5.79701 0.865598C5.52632 0.211721 4.81268 -0.136311 4.13068 0.0500092L1.03706 0.893722C0.425372 1.06246 0 1.61791 0 2.25069C0 10.948 7.05203 18 15.7493 18C16.3821 18 16.9375 17.5746 17.1063 16.9629L17.95 13.8693C18.1363 13.1873 17.7883 12.4737 17.1344 12.203L13.7595 10.7968C13.1865 10.5577 12.5221 10.723 12.1319 11.2046L10.7116 12.9377C8.23675 11.7671 6.23293 9.76325 5.06228 7.28836L6.7954 5.87163C7.27702 5.4779 7.44225 4.81699 7.2032 4.24396L5.79701 0.869114V0.865598Z" fill="#1D4B5B"/>
</svg>
