<svg width="51" height="40" viewBox="0 0 51 40" fill="none" xmlns="http://www.w3.org/2000/svg">
<path id="Vector" d="M30.0059 2.5H40.0059C41.3887 2.5 42.5059 3.61719 42.5059 5C42.5059 6.38281 41.3887 7.5 40.0059 7.5H31.1309C30.7246 9.51562 29.3418 11.1797 27.5059 11.9766V35H40.0059C41.3887 35 42.5059 36.1172 42.5059 37.5C42.5059 38.8828 41.3887 40 40.0059 40H10.0059C8.62306 40 7.50587 38.8828 7.50587 37.5C7.50587 36.1172 8.62306 35 10.0059 35H22.5059V11.9766C20.6699 11.1719 19.2871 9.50781 18.8809 7.5H10.0059C8.62306 7.5 7.50587 6.38281 7.50587 5C7.50587 3.61719 8.62306 2.5 10.0059 2.5H20.0059C21.1465 0.984375 22.959 0 25.0059 0C27.0527 0 28.8652 0.984375 30.0059 2.5ZM9.83399 13.8516L3.99806 25H16.0137L10.1777 13.8516C10.1465 13.7891 10.0762 13.75 10.0059 13.75C9.93556 13.75 9.87306 13.7891 9.83399 13.8516ZM10.0059 10C11.4746 10 12.8184 10.8125 13.4981 12.1094L19.5762 23.7109C19.8184 24.1641 20.0527 24.8047 20.0059 25.5703C19.9512 26.5156 19.6309 28.3203 18.0684 29.875C16.4824 31.4531 13.9277 32.5 10.0059 32.5C6.08399 32.5 3.52931 31.4531 1.94337 29.8828C0.38087 28.3203 0.0527451 26.5234 0.00587006 25.5781C-0.0410049 24.8125 0.201183 24.1719 0.435558 23.7188L6.51368 12.1094C7.19337 10.8125 8.53712 10 10.0059 10ZM40.0059 13.75C39.9356 13.75 39.8731 13.7891 39.834 13.8516L33.9981 25H46.0137L40.1777 13.8516C40.1465 13.7891 40.0762 13.75 40.0059 13.75ZM36.5137 12.1094C37.1934 10.8125 38.5371 10 40.0059 10C41.4746 10 42.8184 10.8125 43.4981 12.1094L49.5762 23.7109C49.8184 24.1641 50.0527 24.8047 50.0059 25.5703C49.9512 26.5156 49.6309 28.3203 48.0684 29.875C46.4824 31.4531 43.9277 32.5 40.0059 32.5C36.084 32.5 33.5293 31.4531 31.9434 29.8828C30.3809 28.3203 30.0527 26.5234 30.0059 25.5781C29.959 24.8125 30.2012 24.1719 30.4356 23.7188L36.5137 12.1094Z" fill="#75AFC2"/>
</svg>
